<svg xmlns="http://www.w3.org/2000/svg" viewBox="0 0 1682.724 1436.621"><g transform="translate(-257.852 528.728)"><path data-name="Pfad 1388" d="M-432.1-313.034c339.253,153.69,538.949,602.666,713.326,621.19s284.418-57.4,316.164-135.528S526.829-56.491,428.443,62.913,516.177,340.094,612.8,377.971,966.074,395.436,1112,165.76" transform="translate(1406.432 37.885) rotate(147)" fill="none" stroke="#9a88d5" stroke-width="3" stroke-dasharray="40 40"/><g><g data-name="Gruppe 329" fill="none" stroke="#403f3f" stroke-miterlimit="10" stroke-width="3"><path data-name="Pfad 1395" d="M152.064,0l-17.25,112.055L87.42,94.3l-1.748-.655S64.8,124.087,64.652,123.652,47.982,78.134,47.982,78.134L0,58.564Z" transform="matrix(-0.53, 0.848, -0.848, -0.53, 523.65, 528.606) translate(0 0) translate(0 0)"/><path data-name="Pfad 1396" d="M20.832,5.509,8.076,0,0,34.711" transform="matrix(-0.53, 0.848, -0.848, -0.53, 523.65, 528.606) translate(0 0) translate(64.84 88.137)"/><path data-name="Pfad 1397" d="M24.977,86.948,104.083,0,0,78.134" transform="matrix(-0.53, 0.848, -0.848, -0.53, 523.65, 528.606) translate(0 0) translate(47.982 0)"/></g></g><line data-name="Linie 145" y1="4" x2="156" transform="translate(360.5 672.5)" fill="none" stroke="#403f3f" stroke-linecap="round" stroke-width="3"/><path data-name="Pfad 1398" d="M13023.852-7170.822l6.605-29.326" transform="matrix(0.848, 0.53, -0.53, 0.848, -14390.227, -163.188)" fill="none" stroke="#403f3f" stroke-linecap="round" stroke-width="3"/><path data-name="Pfad 1399" d="M13023.852-7181.305l5.2-18.844" transform="translate(-10573.994 -9310.123) rotate(71)" fill="none" stroke="#403f3f" stroke-linecap="round" stroke-width="3"/><path data-name="Pfad 1400" d="M13023.852-7190.731l2.605-9.417" transform="matrix(0.656, 0.755, -0.755, 0.656, -13506.177, -4453.905)" fill="none" stroke="#403f3f" stroke-linecap="round" stroke-width="3"/><path data-name="Pfad 1401" d="M13023.852-7190.731l2.605-9.417" transform="matrix(0.174, -0.985, 0.985, 0.174, 5251.892, 14735.418)" fill="none" stroke="#403f3f" stroke-linecap="round" stroke-width="3"/><path data-name="Pfad 1402" d="M13023.852-7170.822l6.605-29.326" transform="matrix(0.087, 0.996, -0.996, 0.087, -7870.38, -11685.811)" fill="none" stroke="#403f3f" stroke-linecap="round" stroke-width="3"/></g></svg>