<svg xmlns="http://www.w3.org/2000/svg" transform="scale(1.6)" viewBox="0 0 586 559"><style>.st3{fill:#e24329}.st4{fill:#fca326}.st5{fill:#fc6d26}.st15{opacity:.1;fill:#e828e3}.st15,.st16{display:inline}.st18{font-family:&apos;SourceSansPro-Semibold&apos;}.st19{font-size:24px}</style><g id="logo_art"><path id="path50_2_" class="st3" d="M293.026 434.983l62.199-191.322H230.918l62.108 191.322z"/><path id="path66_6_" class="st4" d="M143.798 243.662l-18.941 58.126c-1.714 5.278.137 11.104 4.661 14.394l163.509 118.801-149.229-191.321z"/><path id="path74_2_" class="st3" d="M143.798 243.662h87.12l-37.494-115.224c-1.919-5.895-10.282-5.895-12.27 0l-37.356 115.224z"/><path id="path82_6_" class="st4" d="M442.346 243.662l18.873 58.126c1.714 5.278-.137 11.104-4.661 14.394L293.026 434.983l149.32-191.321z"/><path id="path86_2_" class="st3" d="M442.346 243.662h-87.12l37.425-115.224c1.919-5.895 10.282-5.895 12.27 0l37.425 115.224z"/><path class="st5" d="M293.026 434.983l62.199-191.321h87.121zM293.026 434.983L143.798 243.662h87.12z"/></g></svg>
