<?xml version="1.0" encoding="utf-8"?><svg version="1.1" xmlns="http://www.w3.org/2000/svg" xmlns:xlink="http://www.w3.org/1999/xlink" x="0" y="0" viewBox="0 0 263.08 64.46" style="enable-background:new 0 0 263.08 64.46" xml:space="preserve"><style type="text/css">.st0{fill:#688194}.st1{fill:#333}.st2{fill:url(#SVGID_1_)}.st3{fill:url(#SVGID_2_)}.st4{fill:url(#SVGID_3_)}.st5{fill:url(#SVGID_4_)}.st6{fill:url(#SVGID_5_)}.st7{fill:url(#SVGID_6_)}.st8{fill:url(#SVGID_7_)}.st9{fill:url(#SVGID_8_)}.st10{fill:url(#SVGID_9_)}.st11{fill:url(#SVGID_10_)}.st12{fill:url(#SVGID_11_)}.st13{fill:url(#SVGID_12_)}.st14{fill:url(#SVGID_13_)}.st15{fill:none}</style><g id="page__x23_2"><path class="st0" d="M49.79,14.67V50H14.46V14.67H49.79 M53.1,11.36H11.15v41.95H53.1V11.36L53.1,11.36z"/><path class="st1" d="M77.38,21.29h4.93v22.08h-4.93L66.86,29.54v13.83h-4.93V21.29h4.61l10.83,14.21V21.29z"/><path class="st1" d="M102.57,21.29v4.39H91.58v4.55h9.89v4.2h-9.89v4.58h11.34v4.36H86.65V21.29H102.57z"/><path class="st1" d="M114.97,33.99l3.92-12.7h5.15l3.89,12.7l4.39-12.7h5.34l-7.71,22.08h-3.66l-4.83-15.35l-4.8,15.35h-3.66
		l-7.71-22.08h5.34L114.97,33.99z"/><path class="st1" d="M145.21,25.7c-0.47,0.39-0.71,0.91-0.71,1.55c0,0.64,0.29,1.15,0.87,1.53c0.58,0.38,1.92,0.83,4.01,1.34
		c2.1,0.52,3.72,1.29,4.88,2.32c1.16,1.03,1.74,2.54,1.74,4.52c0,1.98-0.74,3.59-2.23,4.82c-1.48,1.23-3.44,1.85-5.86,1.85
		c-3.5,0-6.64-1.3-9.44-3.89l2.94-3.6c2.38,2.08,4.58,3.13,6.6,3.13c0.91,0,1.62-0.19,2.13-0.58c0.52-0.39,0.77-0.92,0.77-1.58
		c0-0.66-0.27-1.19-0.82-1.58c-0.55-0.39-1.63-0.78-3.25-1.18c-2.57-0.61-4.45-1.41-5.64-2.38c-1.19-0.98-1.78-2.52-1.78-4.61
		c0-2.09,0.75-3.71,2.26-4.85c1.5-1.14,3.38-1.71,5.64-1.71c1.47,0,2.95,0.25,4.42,0.76c1.47,0.5,2.76,1.22,3.85,2.15l-2.5,3.6
		c-1.92-1.45-3.9-2.18-5.94-2.18C146.33,25.12,145.68,25.31,145.21,25.7z"/><path class="st1" d="M180.28,21.29h4.93v22.08h-4.93l-10.52-13.83v13.83h-4.93V21.29h4.61l10.83,14.21V21.29z"/><path class="st1" d="M208.52,40.33c-2.23,2.18-4.98,3.27-8.24,3.27c-3.26,0-6.01-1.09-8.24-3.27c-2.23-2.18-3.35-4.89-3.35-8.13
		c0-3.24,1.12-5.95,3.35-8.13c2.23-2.18,4.98-3.27,8.24-3.27c3.26,0,6.01,1.09,8.24,3.27c2.23,2.18,3.35,4.89,3.35,8.13
		C211.87,35.44,210.75,38.15,208.52,40.33z M206.85,32.21c0-1.97-0.63-3.65-1.9-5.04c-1.26-1.39-2.82-2.09-4.66-2.09
		s-3.4,0.7-4.66,2.09c-1.26,1.39-1.9,3.07-1.9,5.04c0,1.97,0.63,3.64,1.9,5.02c1.26,1.38,2.82,2.07,4.66,2.07s3.4-0.69,4.66-2.07
		C206.21,35.85,206.85,34.18,206.85,32.21z"/><path class="st1" d="M222,33.99l3.92-12.7h5.15l3.89,12.7l4.39-12.7h5.34l-7.71,22.08h-3.66l-4.83-15.35l-4.8,15.35h-3.66
		l-7.71-22.08h5.34L222,33.99z"/><linearGradient id="SVGID_1_" gradientUnits="userSpaceOnUse" x1="21.086" y1="25.709" x2="25.502" y2="21.294"><stop offset="0" style="stop-color:#d20000"/><stop offset=".5" style="stop-color:#d20000"/><stop offset=".5" style="stop-color:#eb0f00"/><stop offset="1" style="stop-color:#eb0f00"/></linearGradient><rect x="21.09" y="21.29" class="st2" width="4.42" height="4.42"/><linearGradient id="SVGID_2_" gradientUnits="userSpaceOnUse" x1="38.75" y1="43.374" x2="43.166" y2="38.958"><stop offset="0" style="stop-color:#d20000"/><stop offset=".5" style="stop-color:#d20000"/><stop offset=".5" style="stop-color:#eb0f00"/><stop offset="1" style="stop-color:#eb0f00"/></linearGradient><rect x="38.75" y="38.96" class="st3" width="4.42" height="4.42"/><linearGradient id="SVGID_3_" gradientUnits="userSpaceOnUse" x1="21.086" y1="30.125" x2="25.502" y2="25.709"><stop offset="0" style="stop-color:#e66820"/><stop offset=".5" style="stop-color:#e66820"/><stop offset=".5" style="stop-color:#ea8118"/><stop offset="1" style="stop-color:#ea8118"/></linearGradient><rect x="21.09" y="25.71" class="st4" width="4.42" height="4.42"/><linearGradient id="SVGID_4_" gradientUnits="userSpaceOnUse" x1="38.75" y1="38.958" x2="43.166" y2="34.542"><stop offset="0" style="stop-color:#e66820"/><stop offset=".5" style="stop-color:#e66820"/><stop offset=".5" style="stop-color:#ea8118"/><stop offset="1" style="stop-color:#ea8118"/></linearGradient><rect x="38.75" y="34.54" class="st5" width="4.42" height="4.42"/><linearGradient id="SVGID_5_" gradientUnits="userSpaceOnUse" x1="25.502" y1="30.125" x2="29.918" y2="25.709"><stop offset="0" style="stop-color:#cb2695"/><stop offset=".5" style="stop-color:#cb2695"/><stop offset=".5" style="stop-color:#ea58a6"/><stop offset="1" style="stop-color:#ea58a6"/></linearGradient><rect x="25.5" y="25.71" class="st6" width="4.42" height="4.42"/><linearGradient id="SVGID_6_" gradientUnits="userSpaceOnUse" x1="29.918" y1="34.541" x2="34.334" y2="30.125"><stop offset="0" style="stop-color:#984eb6"/><stop offset=".5" style="stop-color:#984eb6"/><stop offset=".5" style="stop-color:#ab66bc"/><stop offset="1" style="stop-color:#ab66bc"/></linearGradient><rect x="29.92" y="30.13" class="st7" width="4.42" height="4.42"/><linearGradient id="SVGID_7_" gradientUnits="userSpaceOnUse" x1="34.334" y1="38.958" x2="38.75" y2="34.542"><stop offset="0" style="stop-color:#688194"/><stop offset=".5" style="stop-color:#688194"/><stop offset=".5" style="stop-color:#8b9ead"/><stop offset="1" style="stop-color:#8b9ead"/></linearGradient><rect x="34.33" y="34.54" class="st8" width="4.42" height="4.42"/><linearGradient id="SVGID_8_" gradientUnits="userSpaceOnUse" x1="21.086" y1="34.541" x2="25.502" y2="30.125"><stop offset="0" style="stop-color:#ebad00"/><stop offset=".5" style="stop-color:#ebad00"/><stop offset=".5" style="stop-color:#f4c33d"/><stop offset="1" style="stop-color:#f4c33d"/></linearGradient><rect x="21.09" y="30.13" class="st9" width="4.42" height="4.42"/><linearGradient id="SVGID_9_" gradientUnits="userSpaceOnUse" x1="38.75" y1="34.541" x2="43.166" y2="30.125"><stop offset="0" style="stop-color:#ebad00"/><stop offset=".5" style="stop-color:#ebad00"/><stop offset=".5" style="stop-color:#f4c33d"/><stop offset="1" style="stop-color:#f4c33d"/></linearGradient><rect x="38.75" y="30.13" class="st10" width="4.42" height="4.42"/><linearGradient id="SVGID_10_" gradientUnits="userSpaceOnUse" x1="21.086" y1="38.958" x2="25.502" y2="34.542"><stop offset="0" style="stop-color:#77b300"/><stop offset=".5" style="stop-color:#77b300"/><stop offset=".5" style="stop-color:#9bcb19"/><stop offset="1" style="stop-color:#9bcb19"/></linearGradient><rect x="21.09" y="34.54" class="st11" width="4.42" height="4.42"/><linearGradient id="SVGID_11_" gradientUnits="userSpaceOnUse" x1="38.75" y1="30.125" x2="43.166" y2="25.709"><stop offset="0" style="stop-color:#77b300"/><stop offset=".5" style="stop-color:#77b300"/><stop offset=".5" style="stop-color:#9bcb19"/><stop offset="1" style="stop-color:#9bcb19"/></linearGradient><rect x="38.75" y="25.71" class="st12" width="4.42" height="4.42"/><linearGradient id="SVGID_12_" gradientUnits="userSpaceOnUse" x1="21.086" y1="43.374" x2="25.502" y2="38.958"><stop offset="0" style="stop-color:#368bd6"/><stop offset=".5" style="stop-color:#368bd6"/><stop offset=".5" style="stop-color:#4b9fdd"/><stop offset="1" style="stop-color:#4b9fdd"/></linearGradient><rect x="21.09" y="38.96" class="st13" width="4.42" height="4.42"/><linearGradient id="SVGID_13_" gradientUnits="userSpaceOnUse" x1="38.75" y1="25.709" x2="43.166" y2="21.294"><stop offset="0" style="stop-color:#368bd6"/><stop offset=".5" style="stop-color:#368bd6"/><stop offset=".5" style="stop-color:#4b9fdd"/><stop offset="1" style="stop-color:#4b9fdd"/></linearGradient><rect x="38.75" y="21.29" class="st14" width="4.42" height="4.42"/><rect x="247.55" y="38.96" class="st1" width="4.42" height="4.42"/></g><g id="Layer_2"><rect x="124.46" class="st15" width="11.11" height="11.11"/><rect y="26.78" class="st15" width="11.11" height="11.11"/><rect x="251.97" y="26.78" class="st15" width="11.11" height="11.11"/><rect x="124.46" y="53.34" class="st15" width="11.11" height="11.11"/></g></svg>