<svg width="138" height="32" viewBox="0 0 1380 320" xmlns="http://www.w3.org/2000/svg"><style id="dark-mode-custom-style"/><g id="Page-1" fill="none" fill-rule="evenodd"><g id="button"><rect id="Background" fill="#1966D2" width="1380" height="320" rx="40"/><text id="in-Gitpod" opacity=".704" font-family="Helvetica" font-size="140" fill="#FFF"><tspan x="735" y="210">in Gitpod</tspan></text><text id="Code" font-family="Helvetica" font-size="140" fill="#FFF"><tspan x="350" y="210">Open</tspan></text><g id="logo" fill="#FFF" transform="translate(112 57)"><path id="Path" d="M17.74 144.58V63.57L0 53.33V154.77l87.77 50.66V184.7z"/><path id="Path" d="M87.77 163.95V104L35.74 73.96v60.19zM89.35 20.55l70.14 40.42 17.72-10.23L89.35 0 1.49 50.73l17.78 10.26z"/><path id="Path" d="M141.48 71.37L89.36 41.33 37.27 71.38l52.08 30.07zM90.77 164.06l52.25-29.92v-20.48l-36.01 20.49v-20.71l54.01-30.74v61.88l-70.25 40.21v20.74l87.93-50.75V53.35L90.77 104.1zM89.35 103.18v.01-.01z"/></g></g></g></svg>