<svg xmlns="http://www.w3.org/2000/svg" width="108.331" height="111.639" viewBox="0 0 108.331 111.639"><g data-name="Gruppe 249" transform="translate(61.704 -7.924) rotate(41)"><path data-name="Pfad 374" d="M0,0" transform="translate(36.607 27.105)" fill="none" stroke="#403f3f" stroke-linecap="round" stroke-linejoin="round" stroke-width="4"/><path data-name="Pfad 375" d="M41.091,88.15H.125L0,30.1A42.387,42.387,0,0,1,21.236,0S38.075,10.744,40.965,30.1Z" transform="translate(16.703 0)" fill="none" stroke="#403f3f" stroke-miterlimit="10" stroke-width="4"/><line data-name="Linie 130" y2="31.101" transform="translate(37.906 56.924)" fill="none" stroke="#403f3f" stroke-miterlimit="10" stroke-width="4"/><path data-name="Pfad 376" d="M.189,0,17.153,22.619v18.1L0,32.043" transform="translate(57.542 47.786)" fill="none" stroke="#403f3f" stroke-miterlimit="10" stroke-width="4"/><path data-name="Pfad 377" d="M16.964,0,0,22.619v18.1l17.153-8.671" transform="translate(0 47.786)" fill="none" stroke="#403f3f" stroke-miterlimit="10" stroke-width="4"/><circle data-name="Ellipse 242" cx="5.372" cy="5.372" r="5.372" transform="translate(32.534 27.804)" fill="none" stroke="#403f3f" stroke-miterlimit="10" stroke-width="4"/><path data-name="Pfad 378" d="M0,0,3.016,6.813H26.137L30.41.35" transform="translate(22.701 88.151)" fill="none" stroke="#403f3f" stroke-miterlimit="10" stroke-width="4"/><path data-name="Pfad 385" d="M0,0" transform="translate(9.671 83.694)" fill="none" stroke="#403f3f" stroke-width="4"/></g></svg>