<svg width="122" height="94" xmlns="http://www.w3.org/2000/svg" xmlns:xlink="http://www.w3.org/1999/xlink"><defs><filter x="-50%" y="-50%" width="200%" height="200%" filterUnits="objectBoundingBox" id="b"><feOffset dx="7" dy="-10" in="SourceAlpha" result="shadowOffsetInner1"/><feComposite in="shadowOffsetInner1" in2="SourceAlpha" operator="arithmetic" k2="-1" k3="1" result="shadowInnerInner1"/><feColorMatrix values="0 0 0 0 0 0 0 0 0 0 0 0 0 0 0 0 0 0 0.1 0" in="shadowInnerInner1"/></filter><path d="M144.453 104c32.585 0 59-26.415 59-59s-26.415-59-59-59-29.85 27.675-29.85 60.26c0 32.585-2.735 57.74 29.85 57.74z" id="a"/></defs><g transform="translate(-98 2)" fill="none" fill-rule="evenodd"><g transform="rotate(-90 159 45)"><use fill="#2ECE53" xlink:href="#a"/><use fill="#000" filter="url(#b)" xlink:href="#a"/><use stroke="#0E1320" stroke-width="4" xlink:href="#a"/></g><circle fill="#000" cx="139" cy="38" r="7"/><circle fill="#000" cx="183" cy="38" r="7"/><g transform="translate(112 10)" fill="#FFF"><circle cx="2" cy="28" r="2"/><path d="M27.728 5.239c.485-.249.581-.78.203-1.2l-1.326-1.473c-.373-.414-1.08-.545-1.562-.298 0 0-3.85 1.895-7.12 4.199-3.268 2.304-3.255 2.374-4.528 3.52-3.54 3.187-9.186 11.11-9.186 11.11-.317.438-.277 1.123.102 1.543l1.325 1.473c.373.414.917.379 1.223-.086 0 0 2.34-3.68 5.133-6.919 2.793-3.239 1.766-2.055 3.771-4.201 2.955-3.162 11.965-7.668 11.965-7.668z"/></g><path d="M159.5 78.305c9.665 0 17.5-7.835 17.5-17.5s-7.311-4.343-16.976-4.343S142 51.14 142 60.805s7.835 17.5 17.5 17.5z" fill="#000"/></g></svg>