<svg xmlns="http://www.w3.org/2000/svg" viewBox="0 0 463 669" fill="#9b4dca"><path d="M230.3 1.3c-1.1 1.3-5.8 8.9-39.3 62.7-12.8 20.6-24.7 39.7-26.5 42.5-1.8 2.7-8.5 13.5-15 24-6.5 10.4-28.1 45.1-48 77-35.8 57.5-60.4 97-64.1 103.2-1 1.8-4.5 7.4-7.6 12.6-4.7 7.8-10.6 19.4-10.7 21.2-.1.3-1.1 2.6-2.4 5.3-6 11.8-13.2 40.6-15.7 62.3-1.9 15.8-.8 49.1 2 64.9 8.2 46.2 29.1 87.2 61.9 121.3 19.2 19.9 38.7 34 64.6 46.7 33.5 16.5 63.8 23.5 102 23.5s68.5-7 102-23.5c25.9-12.7 45.4-26.8 64.6-46.7 32.8-34.1 53.7-75.1 61.9-121.3 2.8-15.8 3.9-49.1 2-64.9-2.5-21.7-9.7-50.5-15.7-62.3-1.3-2.7-2.3-5-2.3-5.3 0-1.6-5.7-12.7-10.7-21-3.2-5.2-6.7-11-7.7-12.8-3.7-6.2-28.3-45.7-64.1-103.2-19.9-31.9-41.5-66.6-48-77-6.5-10.5-13.2-21.3-15-24-1.8-2.8-13.7-21.9-26.5-42.5C236.6 7 232.7 1 232 .5c-.4-.3-1.2.1-1.7.8zm13.8 90.4c11.8 19.1 65.4 105 121.4 194.8 14.8 23.6 27.1 44 27.3 45.2.2 1.3.8 2.3 1.1 2.3 1.4 0 7.2 9.9 12.5 21.2 9.2 19.5 14.6 38.4 17.1 59.8 11.6 97.4-52.6 188.4-148.8 211-86.8 20.5-177.9-23.4-217.3-104.6-25.3-52.2-25.7-112.4-1-165.9 4.5-9.7 10.8-21 12.6-22.5.4-.3.9-1.3 1.3-2.2.3-.9 12.6-20.9 27.3-44.5C171 168.7 207.8 109.7 218.9 91.7c6.7-10.8 12.4-19.7 12.6-19.7.2 0 5.9 8.9 12.6 19.7zM108 346.2c-7.5 1.7-11.4 6.7-19 24.3-9.1 21.2-12.8 36.8-13.7 58C71.9 505.7 125 573.6 200.7 589c7.7 1.5 11.2 1.8 14.3 1.1 15.5-3.5 21.2-21.3 10.6-32.9-3.2-3.6-6.2-4.8-18.1-7.5-22.3-5-39.2-14-55.2-29.1-11.5-10.9-17.8-19.2-24.2-31.6-10.1-19.7-13.6-35.5-12.8-58 .3-11.1 1-16.7 3-24.1 3-11.3 8-23.7 10.7-26.7 1.1-1.2 2-2.6 2-3.2 0-.6.8-2.2 1.7-3.6 2.6-4.1 2.7-9.9.3-14.7-5.4-10.5-14.2-14.9-25-12.5z"/></svg>