<svg xmlns="http://www.w3.org/2000/svg" width="1000" height="330"><link id="dark-mode" rel="stylesheet" type="text/css"/><style id="dark-mode-custom-style" type="text/css"/><g fill="none" fill-rule="evenodd"><path fill="#0366d6" d="M178.609 33.124L68.136 137.834a5.73 5.73 0 0 0-1.511 2.407 5.687 5.687 0 0 0-.157 2.831 5.695 5.695 0 0 0 3.56 4.196l55.613 21.21L60.681 290.4c-3.028 7.113 3.83 10.641 9.168 6.628l138.293-140.98a5.683 5.683 0 0 0 1.498-5.192 5.696 5.696 0 0 0-3.536-4.093l-53.127-20.283 34.911-87.14a5.71 5.71 0 0 0 .344-2.937 5.702 5.702 0 0 0-1.183-2.71 5.75 5.75 0 0 0-5.348-2.078 5.802 5.802 0 0 0-3.092 1.51z"/><path fill="#1b1f23" d="M289.295 218.148c-18.555 0-33.757-5.761-45.606-17.285-.65-.65-.976-1.432-.976-2.343 0-1.628.879-3.24 2.637-4.834 1.757-1.596 3.515-2.393 5.273-2.393.846 0 1.628.293 2.344.879 4.362 3.71 9.782 6.868 16.26 9.473 6.477 2.604 13.59 3.906 21.337 3.906 9.896 0 18.034-2.1 24.415-6.299 6.38-4.2 9.57-10.14 9.57-17.822 0-3.907-.488-7.21-1.465-9.912-.977-2.702-2.637-5.046-4.98-7.032s-4.948-3.645-7.813-4.98c-2.865-1.335-6.706-2.783-11.523-4.346l-25.391-8.594c-10.026-3.32-17.643-7.584-22.852-12.793-5.208-5.208-7.812-12.37-7.812-21.484 0-7.227 2.116-13.59 6.348-19.092 4.231-5.501 9.944-9.684 17.138-12.549 7.194-2.864 15.218-4.296 24.072-4.296 8.985 0 17.546 1.562 25.684 4.687s14.258 6.64 18.36 10.547c1.302 1.237 1.953 2.604 1.953 4.102 0 1.562-.651 2.962-1.954 4.199-1.302 1.237-2.766 1.855-4.394 1.855-1.367 0-2.637-.456-3.809-1.367-3.58-2.67-8.43-5.24-14.55-7.715-6.12-2.474-12.793-3.71-20.02-3.71-10.286 0-18.457 2.099-24.512 6.298-6.054 4.2-9.082 9.75-9.082 16.65 0 5.73 1.823 10.254 5.469 13.575 3.646 3.32 9.473 6.282 17.48 8.886l25.586 8.399c5.339 1.758 9.847 3.564 13.526 5.42 3.678 1.855 7.112 4.183 10.303 6.982 3.19 2.8 5.582 6.152 7.177 10.059 1.595 3.906 2.393 8.43 2.393 13.574 0 12.695-4.509 22.428-13.526 29.2-9.017 6.77-21.37 10.155-37.06 10.155zm107.715-.293c-15.04 0-22.559-9.993-22.559-29.98v-58.008h-12.89c-3.777 0-5.665-1.562-5.665-4.687 0-3.19 1.888-4.785 5.665-4.785h12.89l1.66-28.907c.065-1.432.863-2.815 2.393-4.15 1.53-1.335 2.978-2.002 4.346-2.002 1.562 0 2.93.537 4.101 1.611s1.758 2.556 1.758 4.444v29.004h18.75c3.646 0 5.469 1.627 5.469 4.882 0 3.06-1.823 4.59-5.469 4.59h-18.75v56.836c0 7.487 1.074 12.663 3.223 15.527 2.148 2.865 5.468 4.297 9.96 4.297h.88l6.152-.293h.293c1.888 0 3.369.57 4.443 1.71 1.074 1.139 1.611 2.457 1.611 3.954 0 2.474-1.041 4.102-3.125 4.883-2.083.782-5.143 1.172-9.18 1.172-.65 0-1.627-.016-2.929-.049a129.505 129.505 0 0 0-3.027-.049zm66.015.196c-10.416 0-18.782-2.425-25.097-7.276-6.315-4.85-9.473-11.8-9.473-20.85 0-4.166.456-7.73 1.367-10.693a18.174 18.174 0 0 1 4.688-7.714c2.213-2.181 4.915-3.955 8.105-5.323s7.406-2.474 12.647-3.32c5.24-.846 10.937-1.416 17.09-1.709 6.152-.293 13.655-.44 22.51-.44v-12.304c0-7.292-2.084-12.695-6.25-16.211-4.167-3.516-9.864-5.273-17.09-5.273-6.12 0-11.41.634-15.87 1.904-4.46 1.27-9.326 3.174-14.6 5.713-.78.39-1.497.586-2.148.586-1.367 0-2.588-.586-3.662-1.758-1.074-1.172-1.611-2.442-1.611-3.809 0-1.497.618-2.636 1.855-3.418 9.7-6.054 21.81-9.082 36.328-9.082 11.72 0 20.834 2.686 27.344 8.057s9.766 13.59 9.766 24.658v60.059c0 1.953-.749 3.499-2.246 4.638-1.498 1.14-3.255 1.71-5.274 1.71-1.823 0-3.385-.522-4.687-1.563-1.302-1.042-1.953-2.54-1.953-4.492v-12.989c-6.576 13.933-17.155 20.899-31.739 20.899zm1.758-9.668c8.073 0 15.104-3.37 21.094-10.108s8.984-15.348 8.984-25.83v-3.222c-14.713 0-25.7.553-32.959 1.66s-12.37 3.043-15.332 5.81c-2.962 2.767-4.443 6.983-4.443 12.647 0 12.695 7.552 19.043 22.656 19.043zm103.418 9.472c-15.039 0-22.558-9.993-22.558-29.98v-58.008h-12.891c-3.776 0-5.664-1.562-5.664-4.687 0-3.19 1.888-4.785 5.664-4.785h12.89l1.66-28.907c.066-1.432.863-2.815 2.393-4.15 1.53-1.335 2.979-2.002 4.346-2.002 1.563 0 2.93.537 4.102 1.611s1.757 2.556 1.757 4.444v29.004h18.75c3.646 0 5.47 1.627 5.47 4.882 0 3.06-1.824 4.59-5.47 4.59H559.9v56.836c0 7.487 1.075 12.663 3.223 15.527 2.148 2.865 5.469 4.297 9.961 4.297h.879l6.152-.293h.293c1.888 0 3.37.57 4.444 1.71 1.074 1.139 1.61 2.457 1.61 3.954 0 2.474-1.04 4.102-3.124 4.883-2.083.782-5.143 1.172-9.18 1.172-.65 0-1.627-.016-2.93-.049a129.505 129.505 0 0 0-3.027-.049zm74.805.196c-11.068 0-19.71-3.125-25.928-9.375-6.217-6.25-9.326-15.82-9.326-28.711v-53.906c0-2.149.7-3.793 2.1-4.932 1.4-1.14 3.076-1.709 5.029-1.709 1.953 0 3.646.57 5.078 1.709 1.432 1.14 2.148 2.783 2.148 4.932v54.101c0 18.685 7.91 28.028 23.73 28.028 8.074 0 14.763-2.588 20.07-7.764s8.316-12.516 9.032-22.022V126.06c0-2.019.75-3.63 2.247-4.834s3.19-1.807 5.078-1.807c1.953 0 3.613.57 4.98 1.709 1.367 1.14 2.05 2.783 2.05 4.932v83.203c0 2.148-.715 3.808-2.148 4.98-1.432 1.172-3.125 1.758-5.078 1.758-1.888 0-3.548-.57-4.98-1.709-1.432-1.14-2.149-2.75-2.149-4.834v-11.426c-2.213 6.38-6.217 11.312-12.011 14.795-5.795 3.483-12.435 5.225-19.922 5.225zm112.012-100.88c6.185 0 12.141.798 17.87 2.393 5.73 1.596 10.222 3.272 13.477 5.03 2.018 1.172 3.028 2.767 3.028 4.785 0 1.237-.424 2.311-1.27 3.223-.846.911-1.986 1.367-3.418 1.367-.651 0-1.53-.163-2.637-.489-.39-.13-1.464-.553-3.222-1.27s-3.32-1.301-4.688-1.757-3.076-.976-5.127-1.562-4.183-1.026-6.396-1.319a51.301 51.301 0 0 0-6.739-.44c-16.992 0-25.488 5.242-25.488 15.723 0 4.297 1.14 7.292 3.418 8.985 2.279 1.693 7.39 3.483 15.332 5.37l17.871 4.395c9.506 2.344 16.195 5.762 20.069 10.254 3.873 4.493 5.81 9.994 5.81 16.504 0 9.831-3.483 17.22-10.449 22.168-6.966 4.948-16.08 7.455-27.344 7.52-6.64 0-13.281-1.058-19.922-3.174-6.64-2.116-11.783-4.508-15.43-7.178-1.757-1.302-2.636-2.832-2.636-4.59 0-1.302.472-2.425 1.416-3.369.944-.944 2.132-1.416 3.564-1.416 1.303 0 2.67.423 4.102 1.27 9.115 5.664 18.978 8.496 29.59 8.496 7.747-.065 13.834-1.66 18.262-4.785 4.427-3.125 6.64-7.617 6.64-13.477 0-4.557-1.286-8.122-3.857-10.693-2.572-2.572-6.983-4.606-13.233-6.104l-18.359-4.394c-3.906-.977-7.096-1.84-9.57-2.588-2.474-.749-5.03-1.79-7.666-3.125s-4.672-2.816-6.104-4.444c-1.432-1.627-2.62-3.71-3.564-6.25-.944-2.539-1.416-5.5-1.416-8.886 0-4.753 1.074-8.87 3.222-12.354 2.149-3.483 5.078-6.2 8.79-8.154s7.73-3.385 12.06-4.297c4.33-.911 9-1.367 14.014-1.367zM834.608 216c-1.889 0-3.532-.618-4.932-1.855-1.4-1.237-2.1-2.995-2.1-5.274v-79.004h-14.258c-3.58 0-5.37-1.562-5.37-4.687 0-3.19 1.79-4.785 5.37-4.785h14.258v-13.086c0-4.948.44-9.294 1.319-13.038.878-3.743 2.067-6.77 3.564-9.082 1.497-2.31 3.37-4.182 5.615-5.615s4.574-2.425 6.983-2.978c2.409-.554 5.143-.83 8.203-.83h11.62c1.563 0 2.784.537 3.663 1.611.879 1.074 1.318 2.327 1.318 3.76s-.455 2.669-1.367 3.71c-.911 1.042-2.18 1.563-3.808 1.563h-8.301c-4.037 0-7.015.635-8.936 1.904-1.92 1.27-3.336 3.825-4.248 7.666-.911 3.842-1.367 9.766-1.367 17.774v6.64h18.262c3.32 0 4.98 1.596 4.98 4.786 0 1.562-.358 2.734-1.074 3.515-.716.782-2.018 1.172-3.906 1.172h-18.262v79.004c0 2.214-.716 3.955-2.148 5.225-1.433 1.27-3.125 1.904-5.079 1.904zm79.882 32.129c-1.562 3.516-4.036 5.273-7.422 5.273-1.757 0-3.271-.553-4.54-1.66-1.27-1.107-1.905-2.506-1.905-4.199 0-.911.26-1.986.781-3.223l15.918-34.96-37.207-79.981c-.455-.977-.683-2.05-.683-3.223 0-1.953.716-3.597 2.148-4.931s3.093-2.002 4.98-2.002c2.8 0 4.85 1.432 6.153 4.297l31.933 69.628 31.543-69.14c1.433-2.995 3.516-4.492 6.25-4.492 1.823 0 3.467.667 4.932 2.002s2.197 2.946 2.197 4.834c0 .78-.13 1.53-.39 2.246z"/></g></svg>