<svg width="66" height="66" fill="none" xmlns="http://www.w3.org/2000/svg"><path d="M45.67 0H20.1C9 0 0 9 0 20.1v25.57c0 11.101 9 20.1 20.1 20.1h25.57c11.1 0 20.1-8.999 20.1-20.1V20.1c0-11.101-9-20.1-20.1-20.1z" fill="#6A63EC"/><path d="M48.6 35.57a1.521 1.521 0 01-1.08-.45L31.77 19.38a1.531 1.531 0 012.17-2.16l15.73 15.73a1.54 1.54 0 01-1.08 2.62h.01z" fill="#fff"/><path d="M22.13 49.02a6.596 6.596 0 01-1.17-.1 6.999 6.999 0 01-5.19-3.82 1.531 1.531 0 112.74-1.37 3.999 3.999 0 006.42 1l6.84-6.82a1.53 1.53 0 012.17 0l6.85 6.86a4 4 0 005.86-.2l-13.8-13.79-5.78 5.77a7.071 7.071 0 01-11.32-1.84 1.54 1.54 0 01.29-1.77l15.73-15.73a1.529 1.529 0 012.497.49 1.533 1.533 0 01-.328 1.67L19.08 34.23a4 4 0 005.83.16l6.86-6.86a1.52 1.52 0 012.05-.1c.074.056.141.12.2.19l15.67 15.67a1.541 1.541 0 01.18 2 7.07 7.07 0 01-11.24 1.68l-5.78-5.78-5.78 5.78a7 7 0 01-4.94 2.05z" fill="#fff"/></svg>
