<svg width="150" height="150" xmlns="http://www.w3.org/2000/svg"><path d="M107.275 135.57a42 42 0 0031.78-69.66 42.29 42.29 0 00-22.8-13.6 43.78 43.78 0 00-1.26-5.37c3.33-2.11 13.17-9.3 13.17-20.81 0-6.86-3.64-11.13-9.48-11.13-6.9 0-19.66 8.63-21.09 9.62l.2.29a27.69 27.69 0 00-19-2.88 20.19 20.19 0 01-8.12 0 27.66 27.66 0 00-19 2.88l.2-.29c-.14-.1-3.48-2.38-7.64-4.7-6.01-3.31-10.41-4.92-13.53-4.92-5.84 0-9.47 4.27-9.47 11.13 0 11.51 9.83 18.7 13.16 20.8a44.38 44.38 0 00-1.26 5.38C14.07 56.551.383 73.284.005 92.81a42.12 42.12 0 0062.1 37.72 26 26 0 015.67-2.25 12.13 12.13 0 0013.85 0 26.1 26.1 0 015.66 2.25 42.15 42.15 0 0019.99 5.04zm11.41-114.88c.94 0 3.78 0 3.78 5.44 0 7.69-6.39 13.13-9.55 15.34a37.06 37.06 0 00-10.3-13.36c5.05-3.26 12.63-7.42 16.07-7.42zm-91.76 5.44c0-5.44 2.85-5.44 3.78-5.44 3.44 0 11 4.16 16.07 7.42a37.17 37.17 0 00-10.3 13.36c-3.16-2.22-9.55-7.66-9.55-15.34zm47.77 98.62c-4.13 0-7.58-3.93-8.37-9.13a18.4 18.4 0 008.37-2.41 18.43 18.43 0 008.37 2.41c-.78 5.2-4.24 9.13-8.37 9.13zm21.77-25.32a12.78 12.78 0 01-12.6 10.57 12.63 12.63 0 01-6.32-1.68V97.61c2.86-1.75 6.86-4.79 6.86-8.21 0-3.42-3.54-6.19-9.74-6.19s-9.74 2.65-9.74 6.19c0 3.54 4 6.46 6.9 8.21v10.67a12.79 12.79 0 01-18.93-8.85l-5.6 1A18.46 18.46 0 0060.535 115a19.09 19.09 0 002.85 8.76 32.33 32.33 0 00-4 1.8 36.41 36.41 0 11-23.27-68l2.1-.35.26-2.12c1.89-15.91 13.29-27.9 26.52-27.9 1.501 0 2.999.15 4.47.45a25.75 25.75 0 0010.42 0 22.398 22.398 0 014.47-.45c13.23 0 24.64 12 26.52 27.9l.26 2.12 2.1.35c17.317 2.947 30.1 17.778 30.46 35.34a36.42 36.42 0 01-53.7 32.62 32.46 32.46 0 00-4-1.8 19.1 19.1 0 002.86-8.76 18.44 18.44 0 0013.2-14.53l-5.59-1z" fill="#c04a4b"/></svg>